<mxfile host="app.diagrams.net" modified="2023-07-21T13:41:04.877Z" agent="Mozilla/5.0 (Windows NT 10.0; Win64; x64) AppleWebKit/537.36 (KHTML, like Gecko) Chrome/114.0.0.0 YaBrowser/23.7.0.2526 Yowser/2.5 Safari/537.36" etag="Mv3RzBfwgBkLG6VJSZx6" version="21.6.5" type="google">
  <diagram name="Страница 1" id="IyhP0Bf16u9Pp1GBC6mL">
    <mxGraphModel grid="1" page="1" gridSize="10" guides="1" tooltips="1" connect="1" arrows="1" fold="1" pageScale="1" pageWidth="827" pageHeight="1169" math="0" shadow="0">
      <root>
        <mxCell id="0" />
        <mxCell id="1" parent="0" />
        <mxCell id="8h4SvegEHWFZaO0T5vBt-23" style="edgeStyle=orthogonalEdgeStyle;rounded=0;orthogonalLoop=1;jettySize=auto;html=1;entryX=0.5;entryY=0;entryDx=0;entryDy=0;" edge="1" parent="1" source="8h4SvegEHWFZaO0T5vBt-1" target="8h4SvegEHWFZaO0T5vBt-2">
          <mxGeometry relative="1" as="geometry" />
        </mxCell>
        <mxCell id="8h4SvegEHWFZaO0T5vBt-1" value="Begin" style="strokeWidth=2;html=1;shape=mxgraph.flowchart.terminator;whiteSpace=wrap;" vertex="1" parent="1">
          <mxGeometry x="390" y="50" width="100" height="60" as="geometry" />
        </mxCell>
        <mxCell id="8h4SvegEHWFZaO0T5vBt-24" style="edgeStyle=orthogonalEdgeStyle;rounded=0;orthogonalLoop=1;jettySize=auto;html=1;entryX=0.5;entryY=0;entryDx=0;entryDy=0;" edge="1" parent="1" source="8h4SvegEHWFZaO0T5vBt-2" target="8h4SvegEHWFZaO0T5vBt-3">
          <mxGeometry relative="1" as="geometry" />
        </mxCell>
        <mxCell id="8h4SvegEHWFZaO0T5vBt-2" value="input(array A)" style="shape=parallelogram;html=1;strokeWidth=2;perimeter=parallelogramPerimeter;whiteSpace=wrap;rounded=1;arcSize=12;size=0.23;" vertex="1" parent="1">
          <mxGeometry x="375" y="140" width="130" height="60" as="geometry" />
        </mxCell>
        <mxCell id="8h4SvegEHWFZaO0T5vBt-9" style="edgeStyle=orthogonalEdgeStyle;rounded=0;orthogonalLoop=1;jettySize=auto;html=1;entryX=0.5;entryY=0;entryDx=0;entryDy=0;entryPerimeter=0;" edge="1" parent="1" source="8h4SvegEHWFZaO0T5vBt-3" target="8h4SvegEHWFZaO0T5vBt-4">
          <mxGeometry relative="1" as="geometry" />
        </mxCell>
        <mxCell id="8h4SvegEHWFZaO0T5vBt-3" value="len_a = size_of(A)&lt;br&gt;i = 1&lt;br&gt;min=A[0]&lt;br&gt;max=A[0]&lt;br&gt;i_min=0&lt;br&gt;i_max=0" style="rounded=1;whiteSpace=wrap;html=1;absoluteArcSize=1;arcSize=14;strokeWidth=2;" vertex="1" parent="1">
          <mxGeometry x="340" y="240" width="200" height="100" as="geometry" />
        </mxCell>
        <mxCell id="8h4SvegEHWFZaO0T5vBt-10" style="edgeStyle=orthogonalEdgeStyle;rounded=0;orthogonalLoop=1;jettySize=auto;html=1;entryX=0.5;entryY=0;entryDx=0;entryDy=0;entryPerimeter=0;" edge="1" parent="1" source="8h4SvegEHWFZaO0T5vBt-4" target="8h4SvegEHWFZaO0T5vBt-5">
          <mxGeometry relative="1" as="geometry" />
        </mxCell>
        <mxCell id="8h4SvegEHWFZaO0T5vBt-20" style="edgeStyle=orthogonalEdgeStyle;rounded=0;orthogonalLoop=1;jettySize=auto;html=1;" edge="1" parent="1" source="8h4SvegEHWFZaO0T5vBt-4">
          <mxGeometry relative="1" as="geometry">
            <Array as="points">
              <mxPoint x="720" y="430" />
              <mxPoint x="720" y="940" />
              <mxPoint x="440" y="940" />
            </Array>
            <mxPoint x="440" y="970" as="targetPoint" />
          </mxGeometry>
        </mxCell>
        <mxCell id="8h4SvegEHWFZaO0T5vBt-4" value="i &amp;lt; len_a" style="strokeWidth=2;html=1;shape=mxgraph.flowchart.decision;whiteSpace=wrap;" vertex="1" parent="1">
          <mxGeometry x="390" y="380" width="100" height="100" as="geometry" />
        </mxCell>
        <mxCell id="8h4SvegEHWFZaO0T5vBt-11" style="edgeStyle=orthogonalEdgeStyle;rounded=0;orthogonalLoop=1;jettySize=auto;html=1;entryX=0.5;entryY=0;entryDx=0;entryDy=0;entryPerimeter=0;" edge="1" parent="1" source="8h4SvegEHWFZaO0T5vBt-5" target="8h4SvegEHWFZaO0T5vBt-6">
          <mxGeometry relative="1" as="geometry" />
        </mxCell>
        <mxCell id="8h4SvegEHWFZaO0T5vBt-12" style="edgeStyle=orthogonalEdgeStyle;rounded=0;orthogonalLoop=1;jettySize=auto;html=1;entryX=0;entryY=0.5;entryDx=0;entryDy=0;" edge="1" parent="1" source="8h4SvegEHWFZaO0T5vBt-5" target="8h4SvegEHWFZaO0T5vBt-7">
          <mxGeometry relative="1" as="geometry" />
        </mxCell>
        <mxCell id="8h4SvegEHWFZaO0T5vBt-5" value="A[i]&amp;lt; min" style="strokeWidth=2;html=1;shape=mxgraph.flowchart.decision;whiteSpace=wrap;" vertex="1" parent="1">
          <mxGeometry x="390" y="520" width="100" height="100" as="geometry" />
        </mxCell>
        <mxCell id="8h4SvegEHWFZaO0T5vBt-14" style="edgeStyle=orthogonalEdgeStyle;rounded=0;orthogonalLoop=1;jettySize=auto;html=1;" edge="1" parent="1" source="8h4SvegEHWFZaO0T5vBt-6" target="8h4SvegEHWFZaO0T5vBt-8">
          <mxGeometry relative="1" as="geometry" />
        </mxCell>
        <mxCell id="8h4SvegEHWFZaO0T5vBt-16" style="edgeStyle=orthogonalEdgeStyle;rounded=0;orthogonalLoop=1;jettySize=auto;html=1;entryX=0.5;entryY=0;entryDx=0;entryDy=0;" edge="1" parent="1" source="8h4SvegEHWFZaO0T5vBt-6" target="8h4SvegEHWFZaO0T5vBt-15">
          <mxGeometry relative="1" as="geometry" />
        </mxCell>
        <mxCell id="8h4SvegEHWFZaO0T5vBt-6" value="A[i]&amp;gt; max" style="strokeWidth=2;html=1;shape=mxgraph.flowchart.decision;whiteSpace=wrap;" vertex="1" parent="1">
          <mxGeometry x="390" y="660" width="100" height="100" as="geometry" />
        </mxCell>
        <mxCell id="8h4SvegEHWFZaO0T5vBt-13" style="edgeStyle=orthogonalEdgeStyle;rounded=0;orthogonalLoop=1;jettySize=auto;html=1;" edge="1" parent="1" source="8h4SvegEHWFZaO0T5vBt-7">
          <mxGeometry relative="1" as="geometry">
            <mxPoint x="440" y="640" as="targetPoint" />
            <Array as="points">
              <mxPoint x="610" y="640" />
            </Array>
          </mxGeometry>
        </mxCell>
        <mxCell id="8h4SvegEHWFZaO0T5vBt-7" value="min = A[i]&lt;br&gt;i_min = i" style="rounded=1;whiteSpace=wrap;html=1;absoluteArcSize=1;arcSize=14;strokeWidth=2;" vertex="1" parent="1">
          <mxGeometry x="560" y="540" width="100" height="60" as="geometry" />
        </mxCell>
        <mxCell id="8h4SvegEHWFZaO0T5vBt-17" style="edgeStyle=orthogonalEdgeStyle;rounded=0;orthogonalLoop=1;jettySize=auto;html=1;" edge="1" parent="1" source="8h4SvegEHWFZaO0T5vBt-8">
          <mxGeometry relative="1" as="geometry">
            <mxPoint x="440" y="780" as="targetPoint" />
            <Array as="points">
              <mxPoint x="610" y="780" />
            </Array>
          </mxGeometry>
        </mxCell>
        <mxCell id="8h4SvegEHWFZaO0T5vBt-8" value="max = A[i]&lt;br&gt;i_max = i" style="rounded=1;whiteSpace=wrap;html=1;absoluteArcSize=1;arcSize=14;strokeWidth=2;" vertex="1" parent="1">
          <mxGeometry x="560" y="680" width="100" height="60" as="geometry" />
        </mxCell>
        <mxCell id="8h4SvegEHWFZaO0T5vBt-18" style="edgeStyle=orthogonalEdgeStyle;rounded=0;orthogonalLoop=1;jettySize=auto;html=1;entryX=0;entryY=0.5;entryDx=0;entryDy=0;entryPerimeter=0;" edge="1" parent="1" source="8h4SvegEHWFZaO0T5vBt-15" target="8h4SvegEHWFZaO0T5vBt-4">
          <mxGeometry relative="1" as="geometry">
            <Array as="points">
              <mxPoint x="440" y="900" />
              <mxPoint x="280" y="900" />
              <mxPoint x="280" y="430" />
            </Array>
          </mxGeometry>
        </mxCell>
        <mxCell id="8h4SvegEHWFZaO0T5vBt-15" value="i = i + 1" style="rounded=1;whiteSpace=wrap;html=1;absoluteArcSize=1;arcSize=14;strokeWidth=2;" vertex="1" parent="1">
          <mxGeometry x="390" y="810" width="100" height="50" as="geometry" />
        </mxCell>
        <mxCell id="8h4SvegEHWFZaO0T5vBt-22" style="edgeStyle=orthogonalEdgeStyle;rounded=0;orthogonalLoop=1;jettySize=auto;html=1;entryX=0.5;entryY=0;entryDx=0;entryDy=0;entryPerimeter=0;" edge="1" parent="1" source="8h4SvegEHWFZaO0T5vBt-19" target="8h4SvegEHWFZaO0T5vBt-21">
          <mxGeometry relative="1" as="geometry" />
        </mxCell>
        <mxCell id="8h4SvegEHWFZaO0T5vBt-19" value="print(S)" style="strokeWidth=2;html=1;shape=mxgraph.flowchart.document2;whiteSpace=wrap;size=0.25;" vertex="1" parent="1">
          <mxGeometry x="390" y="1550" width="100" height="60" as="geometry" />
        </mxCell>
        <mxCell id="8h4SvegEHWFZaO0T5vBt-21" value="End" style="strokeWidth=2;html=1;shape=mxgraph.flowchart.terminator;whiteSpace=wrap;" vertex="1" parent="1">
          <mxGeometry x="390" y="1650" width="100" height="60" as="geometry" />
        </mxCell>
        <mxCell id="8h4SvegEHWFZaO0T5vBt-25" value="true" style="text;html=1;align=center;verticalAlign=middle;resizable=0;points=[];autosize=1;strokeColor=none;fillColor=none;" vertex="1" parent="1">
          <mxGeometry x="440" y="468" width="40" height="30" as="geometry" />
        </mxCell>
        <mxCell id="8h4SvegEHWFZaO0T5vBt-26" value="false" style="text;html=1;align=center;verticalAlign=middle;resizable=0;points=[];autosize=1;strokeColor=none;fillColor=none;" vertex="1" parent="1">
          <mxGeometry x="485" y="400" width="50" height="30" as="geometry" />
        </mxCell>
        <mxCell id="8h4SvegEHWFZaO0T5vBt-27" value="false" style="text;html=1;align=center;verticalAlign=middle;resizable=0;points=[];autosize=1;strokeColor=none;fillColor=none;" vertex="1" parent="1">
          <mxGeometry x="440" y="605" width="50" height="30" as="geometry" />
        </mxCell>
        <mxCell id="8h4SvegEHWFZaO0T5vBt-28" value="false" style="text;html=1;align=center;verticalAlign=middle;resizable=0;points=[];autosize=1;strokeColor=none;fillColor=none;" vertex="1" parent="1">
          <mxGeometry x="440" y="750" width="50" height="30" as="geometry" />
        </mxCell>
        <mxCell id="8h4SvegEHWFZaO0T5vBt-29" value="true" style="text;html=1;align=center;verticalAlign=middle;resizable=0;points=[];autosize=1;strokeColor=none;fillColor=none;" vertex="1" parent="1">
          <mxGeometry x="485" y="540" width="40" height="30" as="geometry" />
        </mxCell>
        <mxCell id="8h4SvegEHWFZaO0T5vBt-30" value="true" style="text;html=1;align=center;verticalAlign=middle;resizable=0;points=[];autosize=1;strokeColor=none;fillColor=none;" vertex="1" parent="1">
          <mxGeometry x="485" y="680" width="40" height="30" as="geometry" />
        </mxCell>
        <mxCell id="ZzO7LHAWJiHBk6B_SML2-6" style="edgeStyle=orthogonalEdgeStyle;rounded=0;orthogonalLoop=1;jettySize=auto;html=1;entryX=0.5;entryY=0;entryDx=0;entryDy=0;" edge="1" parent="1" source="ZzO7LHAWJiHBk6B_SML2-2" target="ZzO7LHAWJiHBk6B_SML2-4">
          <mxGeometry relative="1" as="geometry" />
        </mxCell>
        <mxCell id="ZzO7LHAWJiHBk6B_SML2-7" style="edgeStyle=orthogonalEdgeStyle;rounded=0;orthogonalLoop=1;jettySize=auto;html=1;entryX=0.5;entryY=0;entryDx=0;entryDy=0;" edge="1" parent="1" source="ZzO7LHAWJiHBk6B_SML2-2" target="ZzO7LHAWJiHBk6B_SML2-3">
          <mxGeometry relative="1" as="geometry" />
        </mxCell>
        <mxCell id="ZzO7LHAWJiHBk6B_SML2-2" value="i_min &amp;lt; i_max" style="strokeWidth=2;html=1;shape=mxgraph.flowchart.decision;whiteSpace=wrap;" vertex="1" parent="1">
          <mxGeometry x="390" y="970" width="100" height="100" as="geometry" />
        </mxCell>
        <mxCell id="ZzO7LHAWJiHBk6B_SML2-11" style="edgeStyle=orthogonalEdgeStyle;rounded=0;orthogonalLoop=1;jettySize=auto;html=1;entryX=0.5;entryY=0;entryDx=0;entryDy=0;" edge="1" parent="1" source="ZzO7LHAWJiHBk6B_SML2-3" target="ZzO7LHAWJiHBk6B_SML2-9">
          <mxGeometry relative="1" as="geometry">
            <Array as="points">
              <mxPoint x="290" y="1150" />
              <mxPoint x="440" y="1150" />
            </Array>
          </mxGeometry>
        </mxCell>
        <mxCell id="ZzO7LHAWJiHBk6B_SML2-3" value="start&amp;nbsp; = i_min&lt;br&gt;end = i_max" style="rounded=1;whiteSpace=wrap;html=1;absoluteArcSize=1;arcSize=14;strokeWidth=2;" vertex="1" parent="1">
          <mxGeometry x="240" y="1070" width="100" height="51" as="geometry" />
        </mxCell>
        <mxCell id="ZzO7LHAWJiHBk6B_SML2-12" style="edgeStyle=orthogonalEdgeStyle;rounded=0;orthogonalLoop=1;jettySize=auto;html=1;" edge="1" parent="1" source="ZzO7LHAWJiHBk6B_SML2-4">
          <mxGeometry relative="1" as="geometry">
            <mxPoint x="440" y="1210" as="targetPoint" />
            <Array as="points">
              <mxPoint x="585" y="1150" />
              <mxPoint x="441" y="1150" />
            </Array>
          </mxGeometry>
        </mxCell>
        <mxCell id="ZzO7LHAWJiHBk6B_SML2-4" value="start&amp;nbsp; = i_max&lt;br&gt;end = i_min" style="rounded=1;whiteSpace=wrap;html=1;absoluteArcSize=1;arcSize=14;strokeWidth=2;" vertex="1" parent="1">
          <mxGeometry x="535" y="1070" width="100" height="51" as="geometry" />
        </mxCell>
        <mxCell id="ZzO7LHAWJiHBk6B_SML2-14" style="edgeStyle=orthogonalEdgeStyle;rounded=0;orthogonalLoop=1;jettySize=auto;html=1;entryX=0.5;entryY=0;entryDx=0;entryDy=0;entryPerimeter=0;" edge="1" parent="1" source="ZzO7LHAWJiHBk6B_SML2-9" target="ZzO7LHAWJiHBk6B_SML2-10">
          <mxGeometry relative="1" as="geometry" />
        </mxCell>
        <mxCell id="ZzO7LHAWJiHBk6B_SML2-9" value="S = 0&lt;br&gt;i = start+1" style="rounded=1;whiteSpace=wrap;html=1;absoluteArcSize=1;arcSize=14;strokeWidth=2;" vertex="1" parent="1">
          <mxGeometry x="390" y="1190" width="100" height="50" as="geometry" />
        </mxCell>
        <mxCell id="ZzO7LHAWJiHBk6B_SML2-15" style="edgeStyle=orthogonalEdgeStyle;rounded=0;orthogonalLoop=1;jettySize=auto;html=1;entryX=0.5;entryY=0;entryDx=0;entryDy=0;" edge="1" parent="1" source="ZzO7LHAWJiHBk6B_SML2-10" target="ZzO7LHAWJiHBk6B_SML2-13">
          <mxGeometry relative="1" as="geometry" />
        </mxCell>
        <mxCell id="ZzO7LHAWJiHBk6B_SML2-17" style="edgeStyle=orthogonalEdgeStyle;rounded=0;orthogonalLoop=1;jettySize=auto;html=1;entryX=0.5;entryY=0;entryDx=0;entryDy=0;entryPerimeter=0;" edge="1" parent="1" source="ZzO7LHAWJiHBk6B_SML2-10" target="8h4SvegEHWFZaO0T5vBt-19">
          <mxGeometry relative="1" as="geometry">
            <Array as="points">
              <mxPoint x="580" y="1330" />
              <mxPoint x="580" y="1510" />
              <mxPoint x="440" y="1510" />
            </Array>
          </mxGeometry>
        </mxCell>
        <mxCell id="ZzO7LHAWJiHBk6B_SML2-10" value="i &amp;lt; end" style="strokeWidth=2;html=1;shape=mxgraph.flowchart.decision;whiteSpace=wrap;" vertex="1" parent="1">
          <mxGeometry x="390" y="1280" width="100" height="100" as="geometry" />
        </mxCell>
        <mxCell id="ZzO7LHAWJiHBk6B_SML2-16" style="edgeStyle=orthogonalEdgeStyle;rounded=0;orthogonalLoop=1;jettySize=auto;html=1;entryX=0;entryY=0.5;entryDx=0;entryDy=0;entryPerimeter=0;" edge="1" parent="1" source="ZzO7LHAWJiHBk6B_SML2-13" target="ZzO7LHAWJiHBk6B_SML2-10">
          <mxGeometry relative="1" as="geometry">
            <Array as="points">
              <mxPoint x="440" y="1490" />
              <mxPoint x="290" y="1490" />
              <mxPoint x="290" y="1330" />
            </Array>
          </mxGeometry>
        </mxCell>
        <mxCell id="ZzO7LHAWJiHBk6B_SML2-13" value="S = S + A[i]&lt;br&gt;i= i + 1" style="rounded=1;whiteSpace=wrap;html=1;absoluteArcSize=1;arcSize=14;strokeWidth=2;" vertex="1" parent="1">
          <mxGeometry x="390" y="1410" width="100" height="50" as="geometry" />
        </mxCell>
        <mxCell id="ZdXqoMGXDXWdog2bFhd_-1" value="true" style="text;html=1;align=center;verticalAlign=middle;resizable=0;points=[];autosize=1;strokeColor=none;fillColor=none;" vertex="1" parent="1">
          <mxGeometry x="350" y="990" width="40" height="30" as="geometry" />
        </mxCell>
        <mxCell id="ZdXqoMGXDXWdog2bFhd_-2" value="false" style="text;html=1;align=center;verticalAlign=middle;resizable=0;points=[];autosize=1;strokeColor=none;fillColor=none;" vertex="1" parent="1">
          <mxGeometry x="485" y="990" width="50" height="30" as="geometry" />
        </mxCell>
      </root>
    </mxGraphModel>
  </diagram>
</mxfile>
